<?xml version="1.0" encoding="utf-8"?>
<!-- Generator: Adobe Illustrator 25.1.0, SVG Export Plug-In . SVG Version: 6.00 Build 0)  -->
<svg version="1.1" id="Calque_1" xmlns="http://www.w3.org/2000/svg" xmlns:xlink="http://www.w3.org/1999/xlink" x="0px" y="0px"
	 viewBox="0 0 128 128" style="enable-background:new 0 0 128 128;" xml:space="preserve">
<style type="text/css">
	.st0{fill:#F39200;}
	.st1{fill:#009FE3;}
	.st2{fill:#008D36;}
</style>
<path class="st0" d="M39.85,118.08H15.58c-5.52,0-10-4.48-10-10V19.92c0-5.52,4.48-10,10-10h24.27c5.52,0,10,4.48,10,10v88.17
	C49.85,113.61,45.37,118.08,39.85,118.08z"/>
<path class="st1" d="M117.78,60.04H67.3c-5.52,0-10-4.48-10-10V25.63c0-5.52,4.48-10,10-10h50.49c5.52,0,10,4.48,10,10v24.41
	C127.78,55.56,123.31,60.04,117.78,60.04z"/>
<path class="st2" d="M116.64,112.62H68.44c-5.52,0-10-4.48-10-10V76.2c0-5.52,4.48-10,10-10h48.19c5.52,0,10,4.48,10,10v26.42
	C126.64,108.14,122.16,112.62,116.64,112.62z"/>
</svg>
